<?xml version="1.0" encoding="UTF-8"?><svg id="Layer_2" xmlns="http://www.w3.org/2000/svg" xmlns:xlink="http://www.w3.org/1999/xlink" viewBox="0 0 267.55 49.5"><defs><clipPath id="clippath"><rect x="218.05" width="49.5" height="49.5" fill="none"/></clipPath></defs><g id="Layer_2-2"><g clip-path="url(#clippath)"><path d="M245,7.81c0-1.31-1.06-2.38-2.38-2.38s-2.38,1.06-2.38,2.38,1.06,2.38,2.38,2.38,2.38-1.06,2.38-2.38ZM246.99,6.4c.02.27.03.48.04.64v.64c0,2.76-.61,5.44-1.74,7.88-.7,1.5-1.59,2.91-2.67,4.18-1.08-1.27-1.97-2.68-2.67-4.18-1.13-2.44-1.74-5.12-1.74-7.88v-.64c0-.15.02-.36.04-.64-8.91,5.36.77,15.16,4.37,18.2,3.6-3.04,13.28-12.84,4.37-18.2" fill="#fff" fill-rule="evenodd"/><path d="M259.41,26.98c1.31,0,2.38-1.06,2.38-2.38s-1.06-2.38-2.38-2.38-2.38,1.06-2.38,2.38,1.06,2.38,2.38,2.38ZM260.82,28.97c-.27.02-.48.03-.64.04h-.64c-2.76,0-5.44-.61-7.88-1.74-1.5-.7-2.91-1.59-4.18-2.67,1.27-1.08,2.68-1.97,4.18-2.67,2.44-1.13,5.12-1.74,7.88-1.74h.64c.15,0,.36.02.64.04-5.36-8.91-15.16.77-18.2,4.37,3.04,3.6,12.84,13.28,18.2,4.37" fill="#fff" fill-rule="evenodd"/><path d="M240.24,41.39c0,1.31,1.06,2.38,2.38,2.38s2.38-1.06,2.38-2.38-1.06-2.38-2.38-2.38-2.38,1.06-2.38,2.38ZM238.25,42.8c-.02-.27-.03-.48-.04-.64v-.64c0-2.76.61-5.44,1.74-7.88.7-1.5,1.59-2.91,2.67-4.18,1.08,1.27,1.97,2.68,2.67,4.18,1.13,2.44,1.74,5.12,1.74,7.88v.64c0,.15-.02.36-.04.64,8.91-5.36-.77-15.16-4.37-18.2-3.6,3.04-13.28,12.84-4.37,18.2" fill="#fff" fill-rule="evenodd"/><path d="M225.83,22.23c-1.31,0-2.38,1.06-2.38,2.38s1.06,2.38,2.38,2.38,2.38-1.06,2.38-2.38-1.06-2.38-2.38-2.38ZM224.42,20.23c.27-.02.48-.03.64-.04h.64c2.76,0,5.44.61,7.88,1.74,1.5.7,2.91,1.59,4.18,2.67-1.27,1.08-2.68,1.97-4.18,2.67-2.44,1.13-5.12,1.74-7.88,1.74h-.64c-.15,0-.36-.02-.64-.04,5.36,8.91,15.16-.77,18.2-4.37-3.04-3.6-12.84-13.28-18.2-4.37" fill="#fff" fill-rule="evenodd"/><path d="M220.7,23.74c-.14.22-.32.39-.55.51s-.48.17-.75.15-.52-.1-.73-.24-.37-.34-.48-.57c-.11-.24-.15-.5-.14-.79.02-.24.07-.46.17-.65s.23-.35.4-.47l.36.44c-.23.17-.35.4-.37.68-.01.17.02.33.08.47.07.14.17.25.3.34.13.08.28.13.45.14s.33-.02.47-.08c.14-.07.25-.17.34-.3.08-.13.13-.28.14-.45.02-.28-.08-.52-.29-.72l.41-.39c.15.14.27.32.34.52s.1.42.09.66c-.02.28-.1.54-.23.76h-.01Z" fill="#fff"/><rect x="219.6" y="18.74" width=".65" height="2.79" transform="translate(157.79 232.06) rotate(-78.89)" fill="#fff"/><polygon points="219.63 17.48 219.36 18.33 218.86 18.16 219.61 15.85 220.11 16.01 219.83 16.86 221.99 17.56 221.79 18.18 219.63 17.48 219.63 17.48" fill="#fff"/><rect x="221.28" y="13.48" width=".65" height="2.79" transform="translate(114.81 209.62) rotate(-65.1)" fill="#fff"/><polygon points="224.3 11.82 224.74 12.09 223.59 13.93 221.23 12.45 222.34 10.66 222.78 10.93 222.01 12.18 222.52 12.5 223.21 11.4 223.63 11.67 222.95 12.76 223.49 13.11 224.3 11.82 224.3 11.82" fill="#fff"/><path d="M225.62,10.89c-.18.12-.35.19-.5.22l-.23-.48c.14-.03.29-.1.44-.19.15-.09.28-.2.38-.32.12-.14.19-.26.2-.36.02-.1-.01-.18-.08-.24-.05-.04-.11-.06-.18-.05s-.14.04-.21.08-.17.11-.28.19c-.18.13-.33.23-.46.3-.13.07-.26.11-.41.11s-.29-.06-.43-.18c-.12-.11-.21-.23-.25-.39s-.04-.32.02-.5.17-.37.33-.57c.12-.14.25-.25.39-.35s.29-.17.43-.22l.24.47c-.28.1-.5.25-.67.44-.12.14-.18.26-.19.36-.01.1.02.19.09.25s.16.07.26.03c.1-.05.23-.13.4-.26.18-.13.33-.23.46-.3.13-.07.26-.11.41-.11s.29.06.43.18c.12.1.2.23.24.39.04.15.03.32-.02.51-.06.19-.17.37-.34.57-.14.17-.31.31-.49.43h.02Z" fill="#fff"/><path d="M230.18,5.97c.07-.14.09-.28.08-.44-.02-.15-.07-.3-.17-.44s-.22-.25-.36-.31c-.14-.07-.29-.09-.44-.08s-.3.07-.43.16c-.14.09-.24.21-.3.35-.07.14-.09.28-.08.44.02.15.07.3.17.44s.22.25.36.31c.14.07.29.09.44.08s.3-.07.43-.16c.14-.09.24-.21.3-.35h0ZM229.44,7.06c-.26.03-.51,0-.74-.11-.23-.1-.43-.27-.59-.49-.16-.22-.24-.46-.26-.72s.03-.5.15-.74.3-.44.54-.6c.24-.17.49-.26.75-.29s.51,0,.74.11c.23.1.43.27.59.49s.24.47.26.72c.02.26-.03.5-.15.74-.12.23-.3.44-.53.6-.24.17-.49.26-.75.29h0Z" fill="#fff"/><polygon points="232.07 2.98 232.38 3.64 233.55 3.09 233.77 3.56 232.6 4.11 233.04 5.03 232.46 5.31 231.26 2.78 233.17 1.88 233.39 2.35 232.07 2.98 232.07 2.98" fill="#fff"/><path d="M237.48,3.38c-.21-.02-.39-.06-.53-.13l.12-.52c.14.06.29.1.46.12.17.02.34,0,.5-.02.18-.04.31-.09.38-.16.07-.07.1-.15.08-.24-.01-.07-.05-.11-.11-.15-.06-.03-.13-.05-.22-.06-.08,0-.2-.02-.34-.02-.22,0-.4-.02-.54-.04-.14-.02-.27-.08-.39-.17s-.2-.23-.23-.41c-.03-.16-.02-.31.04-.46s.17-.28.32-.39c.16-.11.36-.19.61-.25.17-.04.35-.05.52-.04.18,0,.33.04.47.09l-.1.52c-.28-.09-.55-.11-.8-.06-.18.04-.3.09-.37.17-.07.07-.1.16-.08.25.02.09.08.15.19.18s.27.04.48.04.4.02.54.04.27.08.39.16c.12.09.19.22.23.4.03.16.02.31-.04.45-.06.15-.17.28-.33.39-.16.11-.36.19-.61.25-.22.04-.43.06-.65.04h0v.02Z" fill="#fff"/><path d="M242.17,2.21c.13-.08.23-.19.3-.33s.1-.29.1-.47-.05-.33-.13-.46-.19-.23-.33-.3-.29-.1-.45-.1-.31.05-.44.13-.23.19-.3.33-.1.29-.1.47c0,.17.05.33.13.46s.19.23.33.3c.14.07.29.1.45.1s.31-.05.44-.13h0ZM240.96,2.73c-.24-.12-.43-.28-.57-.49s-.22-.46-.23-.73.05-.52.17-.75c.12-.22.3-.4.53-.54.23-.13.49-.21.78-.22s.55.04.79.16c.24.12.42.28.57.49.14.21.22.46.23.73s-.05.52-.17.75c-.12.22-.3.4-.53.54-.23.13-.48.21-.77.22-.29,0-.55-.04-.79-.16h-.01Z" fill="#fff"/><polygon points="244.8 .11 245.44 .19 245.16 2.44 246.55 2.61 246.48 3.13 244.45 2.88 244.8 .11" fill="#fff"/><rect x="246.83" y="1.79" width="2.79" height=".65" transform="translate(186.72 242.61) rotate(-76.14)" fill="#fff"/><path d="M250.83,3.85c.26.1.49.11.71.03.21-.08.37-.25.47-.49.1-.25.1-.47,0-.68s-.27-.36-.53-.47l-.55-.22-.64,1.61.55.22h0ZM250.53,1.3l1.18.47c.28.11.51.27.68.46s.28.41.32.66c.04.24.01.49-.09.75s-.25.46-.45.61-.43.23-.69.25c-.26.02-.53-.03-.81-.14l-1.18-.47,1.04-2.59h0Z" fill="#fff"/><path d="M255.05,5.4l.19-1.14-.94.67.75.47ZM254.97,5.93l-1.1-.68-.53.38-.56-.35,2.53-1.71.54.34-.41,3.03-.58-.36.11-.64h0Z" fill="#fff"/><path d="M258.83,7.01c-.02-.13-.1-.26-.25-.39l-.39-.35-.65.73.39.35c.15.13.28.19.42.2.13,0,.25-.05.35-.17s.15-.24.13-.37h0ZM257.53,8.72l.11-.94-.02-.02-.42-.37-.52.58-.48-.43,1.85-2.09.9.8c.19.16.32.34.4.52.08.18.11.36.08.54s-.11.35-.25.5c-.14.16-.29.26-.47.3-.17.05-.36.04-.55-.02l-.13,1.09-.52-.46h.02Z" fill="#fff"/><rect x="258.69" y="9.06" width="2.79" height=".65" transform="translate(57.87 173.22) rotate(-41.08)" fill="#fff"/><polygon points="262.32 10.82 261.82 10.08 262.26 9.78 263.63 11.79 263.19 12.09 262.69 11.35 260.82 12.63 260.45 12.09 262.32 10.82 262.32 10.82" fill="#fff"/><polygon points="263.28 15.01 262.39 15.44 262.11 14.86 263 14.43 264.15 12.67 264.45 13.29 263.66 14.5 265.1 14.63 265.37 15.21 263.28 15.01 263.28 15.01" fill="#fff"/><rect x="264.36" y="16.65" width=".5" height="1.13" transform="translate(8.29 85.16) rotate(-18.57)" fill="#fff"/><path d="M264.75,21.1c.1.12.22.2.37.25s.31.06.48.03c.17-.03.32-.09.44-.19s.21-.22.26-.36.06-.3.03-.46-.09-.3-.19-.42-.22-.2-.37-.25-.31-.06-.48-.03c-.17.03-.32.09-.44.19s-.21.22-.26.36c-.05.14-.06.3-.03.46s.09.3.19.42h0ZM264.06,19.97c.08-.25.22-.46.41-.63.19-.17.42-.28.69-.32.27-.05.52-.03.76.06s.44.24.6.45c.16.21.27.45.32.74.05.29.03.55-.05.8-.08.25-.22.46-.41.63-.19.17-.42.28-.69.33-.27.05-.52.03-.76-.07-.24-.09-.44-.24-.6-.45-.16-.21-.27-.45-.32-.74-.05-.29-.04-.55.05-.8h0Z" fill="#fff"/><path d="M266.55,25.03c.08-.1.12-.25.12-.44v-.53l-.98.02v.53c.01.19.06.34.14.44.09.1.21.15.36.15.16,0,.28-.06.36-.16h0ZM264.41,25.23l.77-.55v-.59h-.78v-.63s2.78-.05,2.78-.05l.02,1.21c0,.25-.03.46-.11.65-.08.18-.19.33-.34.43s-.33.15-.54.16c-.21,0-.39-.04-.54-.14-.15-.1-.27-.24-.35-.42l-.89.64v-.69h-.01v-.02Z" fill="#fff"/><path d="M265.1,28.85l1.13-.26-.98-.61-.15.87ZM264.58,28.97l.21-1.28-.55-.34.11-.65,2.55,1.69-.11.63-2.96.77.11-.67.63-.14h.01Z" fill="#fff"/><path d="M263.5,31c.12-.18.25-.31.38-.4l.39.36c-.12.09-.23.2-.34.34-.1.14-.18.29-.23.44-.06.17-.08.31-.05.41.02.1.08.17.16.19.06.02.12,0,.18-.02s.11-.09.16-.15c.05-.07.11-.16.19-.28.12-.19.22-.33.31-.45.09-.11.21-.2.34-.25.14-.06.29-.05.47,0,.15.05.28.14.37.27.1.13.15.28.17.48.02.19-.02.41-.1.65-.06.17-.13.33-.23.47-.09.15-.2.27-.32.36l-.4-.35c.22-.2.37-.42.46-.66.06-.17.07-.31.05-.41-.03-.1-.09-.17-.18-.2-.09-.03-.17,0-.25.07-.08.08-.17.21-.28.39-.12.19-.22.33-.31.45-.09.11-.2.2-.34.25-.13.06-.29.06-.47,0-.15-.05-.27-.14-.37-.27s-.15-.29-.17-.48.02-.41.1-.65c.07-.21.17-.4.29-.58h0l.02.02ZM262.84,31.72c-.06.03-.12.04-.19.01-.08-.03-.15-.08-.22-.15l-.21-.22.09-.28.27.2s.07-.07.11-.08.09-.01.14,0c.07.02.11.06.14.13.03.06.02.13,0,.21s-.07.14-.13.17h0Z" fill="#fff"/><polygon points="261.88 35.92 261.42 35.68 262.42 33.76 264.89 35.05 263.92 36.92 263.46 36.68 264.14 35.38 263.6 35.1 263 36.25 262.56 36.02 263.15 34.87 262.58 34.57 261.88 35.92 261.88 35.92" fill="#fff"/><path d="M259.4,40.16l1.09.38-.5-1.04-.59.66h0ZM258.9,39.98l.86-.97-.28-.58.44-.49,1.26,2.79-.42.48-2.91-.93.45-.51.61.21h0Z" fill="#fff"/><polygon points="258.86 43.08 258.36 43.49 256.92 41.74 255.84 42.62 255.51 42.22 257.09 40.92 258.86 43.08 258.86 43.08" fill="#fff"/><polygon points="253.04 44.37 252.77 43.93 254.63 42.82 256.06 45.21 254.25 46.3 253.98 45.85 255.24 45.1 254.93 44.58 253.82 45.24 253.56 44.81 254.67 44.15 254.34 43.59 253.04 44.37" fill="#fff"/><path d="M249.7,45.28c.21,0,.4.02.54.08l-.07.53c-.14-.05-.3-.07-.47-.08-.17,0-.34.02-.5.07-.18.05-.3.12-.36.2-.07.08-.09.16-.06.25.02.06.06.11.12.14.06.03.14.04.22.04.09,0,.2,0,.34,0,.22,0,.4-.02.54,0,.14,0,.28.05.41.13s.22.21.27.38c.05.15.05.31,0,.46-.04.15-.14.29-.29.42-.15.13-.34.23-.59.3-.17.05-.34.08-.52.09-.18,0-.34,0-.48-.04l.05-.53c.29.06.56.06.8-.02.17-.05.29-.12.36-.2s.08-.17.06-.26c-.03-.09-.1-.14-.21-.16s-.27,0-.48,0c-.22,0-.4.02-.54,0-.14,0-.28-.05-.4-.13s-.21-.2-.27-.38c-.05-.15-.05-.3,0-.46s.14-.29.29-.42c.15-.13.34-.23.59-.3.21-.07.42-.1.64-.1h0Z" fill="#fff"/><path d="M245.14,46.88c-.12.09-.21.21-.27.36-.06.14-.07.3-.05.47.02.17.08.32.17.44.09.12.21.22.35.27.14.06.29.08.46.05.16-.02.31-.08.43-.17.12-.09.21-.21.27-.36.06-.14.07-.3.05-.47-.02-.17-.08-.32-.17-.44-.09-.12-.21-.22-.35-.27-.14-.06-.29-.08-.46-.05-.16.02-.31.08-.43.17h0ZM246.29,46.25c.25.09.45.24.61.44.16.2.26.44.29.71.04.27,0,.52-.1.76-.1.23-.26.43-.47.58-.21.15-.47.25-.75.29-.29.04-.55,0-.8-.08s-.45-.24-.61-.44c-.16-.2-.26-.44-.29-.71-.04-.27,0-.52.1-.76.1-.23.26-.43.47-.58.21-.15.46-.25.75-.29s.55,0,.8.08h0Z" fill="#fff"/><polygon points="242.72 49.21 242.07 49.19 242.14 46.92 240.74 46.88 240.76 46.35 242.8 46.42 242.72 49.21 242.72 49.21" fill="#fff"/><rect x="237.81" y="47.23" width="2.79" height=".65" transform="translate(156.81 277.1) rotate(-81.5)" fill="#fff"/><path d="M236.36,46.04c-.27-.08-.5-.07-.71.03-.2.1-.34.28-.42.54-.08.26-.06.48.06.68s.31.33.57.41l.57.17.49-1.66-.57-.17h.01ZM236.91,48.56l-1.22-.36c-.29-.09-.53-.22-.72-.39s-.32-.38-.38-.62c-.06-.24-.06-.49.02-.76.08-.27.21-.48.39-.65.18-.16.4-.27.66-.32.26-.04.53-.02.82.06l1.22.36-.79,2.68h0Z" fill="#fff"/><path d="M232.01,44.89l-.08,1.15.87-.76-.79-.4h0ZM232.05,44.36l1.16.58.49-.42.59.3-2.36,1.94-.57-.29.13-3.06.61.3-.05.65h0Z" fill="#fff"/><path d="M228.1,43.65c.03.13.13.25.28.36l.42.31.57-.79-.42-.31c-.16-.11-.3-.17-.43-.16-.13,0-.24.08-.33.2-.09.13-.12.25-.09.38h0ZM229.24,41.82l-.02.95.03.02.45.33.46-.63.52.38-1.65,2.25-.97-.71c-.2-.15-.35-.31-.45-.48-.1-.17-.14-.35-.13-.53s.08-.35.2-.52c.12-.17.27-.28.44-.34s.35-.07.55-.03l.02-1.09.56.41h-.01Z" fill="#fff"/><rect x="225.29" y="41.14" width="2.79" height=".65" transform="translate(40.28 176.97) rotate(-46.38)" fill="#fff"/><polygon points="224.27 40.18 224.84 40.87 224.44 41.2 222.89 39.33 223.29 38.99 223.86 39.68 225.61 38.24 226.02 38.73 224.27 40.18 224.27 40.18" fill="#fff"/><path d="M222.74,35.96l-.69.93,1.14-.17s-.45-.76-.45-.76ZM223.06,35.54l.67,1.11.64-.09.34.57-3.03.37-.33-.55,1.75-2.5.35.58-.39.52h0ZM221.46,37.84c-.02.17-.11.31-.27.41l-.2-.34c.07-.05.11-.11.12-.19.01-.08,0-.16-.06-.25-.05-.08-.11-.14-.19-.17s-.15-.02-.23.02l-.2-.34c.16-.09.33-.1.49-.04.16.06.3.18.41.36s.15.36.13.53h0Z" fill="#fff"/><path d="M222.68,32.5c.02-.06.07-.11.13-.13.08-.03.17-.04.27-.03l.3.03.11.27-.33.03s0,.09-.03.13c-.02.04-.06.07-.11.09-.07.03-.13.03-.19,0s-.1-.08-.14-.16c-.03-.08-.04-.15-.01-.21h0v-.02ZM220.45,33.97l.34.83-.49.2-.92-2.25.49-.2.34.83,2.1-.85.24.6-2.1.85h0Z" fill="#fff"/><rect x="218.86" y="30.44" width="2.79" height=".65" transform="translate(-.34 58.98) rotate(-15.24)" fill="#fff"/><rect x="218.38" y="28.34" width="2.79" height=".65" transform="translate(-1.67 37.94) rotate(-9.83)" fill="#fff"/><rect x="219.21" y="25.74" width=".5" height="1.13" transform="translate(-1.32 15.68) rotate(-4.08)" fill="#fff"/></g><line x1="202.12" y1="12.02" x2="202.12" y2="40.14" fill="none" stroke="#fff" stroke-miterlimit="10"/><path d="M26.32,33.36c.51,0,.45-.29.45-.83v-2.63c0-.54-.05-.72.26-.72,1.08,0,1.37-.1,1.37-1.07v-9.78c0-2.66-1.87-2.22-2.41-3.19-.75-1.32,1.41-1.32.62-4.16-.2-.64-.71-1.05-1.68-1.05s-1.48.4-1.68,1.05c-.78,2.84,1.38,2.84.62,4.16-.53.97-2.41.53-2.41,3.19v9.78c0,.96.29,1.07,1.37,1.07.31,0,.26.17.26.72v2.63c0,.54-.07.83.45.83h2.77" fill="#fff"/><path d="M17.76,12.17c-.96,1.02-2.48,3.41-1.49,5.4,2.02.77,1.86-6.39,4.37-6.27,1.24,1.14-.37,4.53-.87,6.02-.62,1.83-1.11,5.68-2.29,7.53-.99,1.55-.25,6.42-.56,8.1-.84.84-3.1.25-4.07.09,0-1.92-.25-3.44-.56-6.51-.03-.62-.69-10.1-.15-11.26,1.09-2.39,7.01-6.94,7.81-7.81.71-.77,3.23-3.35,4.19-3.35.68.47.28,1.55.12,1.98-.96,2.39-5.12,4.74-6.52,6.08" fill="#fff"/><path d="M32.21,12.17c.93,1.02,2.45,3.41,1.48,5.4-2.05.77-1.89-6.39-4.4-6.27-1.21,1.14.4,4.53.9,6.02.62,1.83,1.12,5.68,2.29,7.53.97,1.55.25,6.42.52,8.1.87.84,3.11.25,4.1.09,0-1.92.22-3.44.52-6.51.07-.62.71-10.1.19-11.26-1.08-2.39-7.01-6.94-7.81-7.81-.74-.77-3.23-3.35-4.19-3.35-.71.47-.27,1.55-.12,1.98.96,2.39,5.11,4.74,6.52,6.08" fill="#fff"/><path d="M9.15,8.95c-.52.5-1.71.84-2.52,1.92-.31-.59.5-2.02,1.46-2.86.71-.59,2.11-1.56,2.52-1.65.32.71-.81,1.8-1.46,2.58" fill="#fff"/><path d="M7.5,12.83c-.89.84-1.86,1.18-3.11,2.7-.52-1.83-.4-3.46-.15-4.54.44-1.43,1.16-3.02,2.37-3.51-.25.81-.65,1.93-.75,3.46-.52,2.08-.84,2.15-.71,2.42.12,0,.81-1.09,1.65-1.93.99-.99,2.23-1.21,3.04-1.8-.12.4-.84,1.68-2.33,3.2" fill="#fff"/><path d="M3.12,21.44c-1.21-2.18-1.34-3.76-1.43-5.59.07-1.28.69-4.22,1.61-4.65-.28,2.67.44,2.92.15,5.12,0,.12-.32,2.42-.32,2.55.37-.07.03-2.11,4.28-5.07-.93,1.61-.5,2.11-2.18,4.26-1.95,1.93-2.23,3.81-2.14,3.39" fill="#fff"/><path d="M4.83,23.49c-.9,1.31-.75,1.95-.97,2.57C1.71,24.83-.71,19.88.2,17.43c.57,1.86,1.34,2.27,1.9,3.83.96,2.33.81,3.04,1.43,3.57-.12-1.21.28-2.64.69-3.69.59-.9,1.05-2.08,1.49-2.48.47,1.71.12,3.11-.87,4.85" fill="#fff"/><path d="M6.76,27.72c0,1.9-.35,2.74-.5,4.13-3.69-1.21-5.62-5.44-5.62-7.52,1.12,2.55,2.77,2.52,4.92,6.13.19-1.37-.38-.35-.44-2.92.07-2.7.62-2.8.71-4.48.69.74.94,3.73.94,4.66" fill="#fff"/><path d="M9.83,33.09c.28,1.4.4,3.05.62,4.26-2.11-.77-2.65-.19-5.16-1.78-1.16-.62-3.2-3.23-3.07-5.1,2.48,2.77,2.92,2.46,4.13,3.48,1.12.9,2.02,2.23,2.83,2.05.05-.74-1.83-2.37-1.59-7.02.5.52,1.86,2.64,2.23,4.1" fill="#fff"/><path d="M14.02,36.57c.65.93.5,1.33,2.18,3.26-.4.19-2.8.81-4.38.87-1.05,0-4.78-.99-6.03-3.54,2.15,1.14,2.18.87,5.04,1.49,2.05.47,3.51,1.12,4.08,1.06-.12-.28-1.71-.94-2.79-2.3-1.09-1.46-.84-3.11-1.81-4.32.65-.19,3.2,2.8,3.73,3.49" fill="#fff"/><path d="M40.65,8.95c.5.5,1.71.84,2.48,1.92.34-.59-.49-2.02-1.46-2.86-.68-.59-2.08-1.56-2.52-1.65-.31.71.81,1.8,1.49,2.58" fill="#fff"/><path d="M42.31,12.83c.87.84,1.83,1.18,3.07,2.7.53-1.83.4-3.46.16-4.54-.4-1.43-1.16-3.02-2.37-3.51.28.81.65,1.93.74,3.46.52,2.08.84,2.15.72,2.42-.12,0-.81-1.09-1.65-1.93-.96-.99-2.2-1.21-3.04-1.8.12.4.87,1.68,2.37,3.2" fill="#fff"/><path d="M46.65,21.44c1.24-2.18,1.33-3.76,1.43-5.59-.07-1.28-.69-4.22-1.59-4.65.25,2.67-.47,2.92-.15,5.12,0,.12.28,2.42.28,2.55-.34-.07-.03-2.11-4.26-5.07.9,1.61.47,2.11,2.15,4.26,1.98,1.93,2.23,3.81,2.15,3.39" fill="#fff"/><path d="M44.98,23.49c.87,1.31.72,1.95.94,2.57,2.15-1.24,4.6-6.18,3.66-8.63-.52,1.86-1.34,2.27-1.86,3.83-.99,2.33-.84,3.04-1.43,3.57.12-1.21-.32-2.64-.72-3.69-.56-.9-1.06-2.08-1.49-2.48-.44,1.71-.12,3.11.9,4.85" fill="#fff"/><path d="M43.01,27.72c0,1.9.37,2.74.52,4.13,3.67-1.21,5.62-5.44,5.62-7.52-1.16,2.55-2.77,2.52-4.94,6.13-.19-1.37.37-.35.44-2.92-.07-2.7-.62-2.8-.72-4.48-.68.74-.93,3.73-.93,4.66" fill="#fff"/><path d="M39.94,33.09c-.28,1.4-.37,3.05-.59,4.26,2.08-.77,2.6-.19,5.12-1.78,1.16-.62,3.24-3.23,3.11-5.1-2.48,2.77-2.95,2.46-4.13,3.48-1.12.9-2.05,2.23-2.87,2.05-.07-.74,1.83-2.37,1.61-7.02-.53.52-1.9,2.64-2.27,4.1" fill="#fff"/><path d="M35.74,36.57c-.62.93-.47,1.33-2.17,3.26.44.19,2.8.81,4.41.87,1.02,0,4.75-.99,5.99-3.54-2.14,1.14-2.17.87-5.04,1.49-2.05.47-3.48,1.12-4.07,1.06.12-.28,1.73-.94,2.8-2.3,1.09-1.46.84-3.11,1.83-4.32-.68-.19-3.23,2.8-3.76,3.49" fill="#fff"/><path d="M19.59,45.33l-.62-.32s3.95-4.82,10.72-4.45c6.77.37,6.31,1.96,9.94,1.71.4-.03-.31.5-.31.5,0,0-3.54,1.36-7.92-.13-4.35-1.49-7.18-2.4-11.8,2.67" fill="#fff"/><path d="M30.31,45.33l.62-.32s-3.91-4.82-10.69-4.45c-6.8.37-6.34,1.96-9.97,1.71-.4-.03.31.5.31.5,0,0,3.54,1.36,7.92-.13s7.2-2.4,11.8,2.67" fill="#fff"/><path d="M78.33,24.38c0,6.5-3.51,9.6-10.65,9.6s-10.69-3.12-10.69-9.6v-14.37h7.22v12.75c0,2.39,0,5.37,3.51,5.37s3.41-2.99,3.41-5.37v-12.75h7.22v14.35" fill="#fff"/><polygon points="82.65 10.02 90.03 10.02 96.84 22.54 96.91 22.54 96.91 10.02 103.73 10.02 103.73 33.43 96.71 33.43 89.53 20.65 89.47 20.65 89.47 33.43 82.65 33.43 82.65 10.02 82.65 10.02" fill="#fff"/><polygon points="108.16 10.02 115.37 10.02 115.37 18.15 122.12 18.15 122.12 10.02 129.34 10.02 129.34 33.43 122.12 33.43 122.12 24.15 115.37 24.15 115.37 33.43 108.16 33.43 108.16 10.02 108.16 10.02" fill="#fff"/><path d="M147.8,18.74c-.13-.85-.78-3.44-3.77-3.44-3.38,0-4.46,3.28-4.46,6.42s1.08,6.43,4.46,6.43c2.43,0,3.38-1.71,3.8-3.9h7.08c0,4.72-3.84,9.73-10.69,9.73-7.57,0-11.87-5.34-11.87-12.26,0-7.38,4.65-12.26,11.87-12.26,6.42.03,9.97,3.41,10.58,9.28h-7.02" fill="#fff"/><path d="M157.92,33.43h7.22v-8.16h3.84c2.84,0,3.04,2.33,3.25,4.56.1,1.21.23,2.43.59,3.61h7.22c-.65-1.08-.69-3.87-.78-5.01-.26-2.92-1.47-5.08-3.44-5.84,2.4-.88,3.51-3.44,3.51-5.86,0-4.43-3.54-6.69-7.64-6.69h-13.73v23.4M165.14,15.59h3.38c2.76,0,3.57.85,3.57,2.33,0,2.09-1.84,2.33-3.18,2.33h-3.77v-4.65h0Z" fill="#fff"/><polygon points="59.33 38.8 56.98 38.8 56.98 37.35 63.41 37.35 63.41 38.8 61.05 38.8 61.05 45.2 59.33 45.2 59.33 38.8 59.33 38.8" fill="#fff"/><path d="M63.94,37.35h1.56v2.95h.03c.39-.63,1.08-.95,1.66-.95,1.66,0,2.07.94,2.07,2.34v3.5h-1.56v-3.2c0-.94-.27-1.4-1-1.4-.85,0-1.21.47-1.21,1.62v2.98h-1.56v-7.85" fill="#fff"/><path d="M74.03,41.75c-.14-.8-.48-1.21-1.24-1.21-.99,0-1.28.77-1.3,1.21h2.54M71.5,42.74c.04.99.52,1.44,1.4,1.44.63,0,1.13-.38,1.23-.74h1.37c-.44,1.34-1.37,1.92-2.66,1.92-1.79,0-2.9-1.23-2.9-2.99s1.18-3,2.9-3c1.93,0,2.87,1.62,2.76,3.37h-4.1Z" fill="#fff"/><path d="M85.73,42.24c0,2.13-1.25,3.15-3.35,3.15s-3.34-1.02-3.34-3.15v-4.88h1.72v4.88c0,.86.22,1.7,1.61,1.7,1.23,0,1.62-.53,1.62-1.7v-4.88h1.72v4.88" fill="#fff"/><polygon points="86.88 37.35 88.59 37.35 91.86 42.62 91.89 42.62 91.89 37.35 93.5 37.35 93.5 45.2 91.78 45.2 88.52 39.95 88.5 39.95 88.5 45.2 86.88 45.2 86.88 37.35 86.88 37.35" fill="#fff"/><path d="M97.26,45.2h1.72v-3.06h1.72c.87,0,1.19.36,1.31,1.19.09.63.07,1.38.27,1.89h1.72c-.31-.44-.29-1.36-.33-1.85-.05-.8-.29-1.61-1.14-1.83v-.02c.87-.35,1.24-1.05,1.24-1.96,0-1.19-.89-2.17-2.3-2.17h-4.23v7.85M98.98,38.69h1.89c.76,0,1.19.33,1.19,1.09s-.41,1.12-1.19,1.12h-1.89v-2.21h0Z" fill="#fff"/><path d="M110.21,42.74c.11-1.74-.83-3.37-2.76-3.37-1.72,0-2.9,1.3-2.9,3s1.11,2.99,2.9,2.99c1.29,0,2.21-.57,2.66-1.92h-1.37c-.1.35-.61.74-1.23.74-.87,0-1.35-.45-1.4-1.44h4.1M106.11,41.75c.02-.44.31-1.21,1.3-1.21.76,0,1.1.41,1.24,1.21h-2.54Z" fill="#fff"/><path d="M111.24,40.56h-.94v-1.05h.94v-.44c0-1,.62-1.72,1.9-1.72.27,0,.56.03.83.04v1.17c-.19-.02-.37-.03-.57-.03-.41,0-.59.17-.59.65v.34h1.08v1.05h-1.08v4.63h-1.56v-4.63" fill="#fff"/><path d="M119.69,45.2h-1.48v-.8h-.03c-.39.63-1.08.95-1.73.95-1.66,0-2.07-.94-2.07-2.34v-3.49h1.56v3.2c0,.94.27,1.4,1,1.4.85,0,1.21-.47,1.21-1.62v-2.98h1.56v5.68" fill="#fff"/><path d="M126.09,39.52h-1.48v.76h-.02c-.37-.66-.95-.92-1.69-.92-1.59,0-2.44,1.34-2.44,2.81,0,1.56.73,2.86,2.43,2.86.68,0,1.36-.28,1.7-.88h.02v.75c.01.82-.38,1.41-1.25,1.41-.54,0-1.02-.2-1.17-.78h-1.55c.08,1.3,1.38,1.82,2.51,1.82,2.62,0,2.94-1.58,2.94-2.52v-5.32M123.28,43.86c-.96,0-1.26-.89-1.26-1.7s.38-1.61,1.26-1.61c1.01,0,1.33.83,1.33,1.74,0,.82-.44,1.57-1.33,1.57" fill="#fff"/><path d="M132.53,42.74c.11-1.74-.83-3.37-2.76-3.37-1.72,0-2.9,1.3-2.9,3s1.11,2.99,2.9,2.99c1.29,0,2.22-.57,2.66-1.92h-1.37c-.1.35-.6.74-1.23.74-.87,0-1.35-.45-1.4-1.44h4.1M128.43,41.75c.02-.44.31-1.21,1.3-1.21.76,0,1.1.41,1.24,1.21h-2.54Z" fill="#fff"/><path d="M138.63,42.74c.11-1.74-.83-3.37-2.76-3.37-1.72,0-2.9,1.3-2.9,3s1.11,2.99,2.9,2.99c1.29,0,2.22-.57,2.66-1.92h-1.37c-.1.35-.6.74-1.23.74-.87,0-1.35-.45-1.4-1.44h4.1M134.53,41.75c.02-.44.31-1.21,1.3-1.21.76,0,1.1.41,1.24,1.21h-2.54Z" fill="#fff"/><path d="M141.93,45.2h1.74l.62-1.74h2.93l.59,1.74h1.79l-2.93-7.85h-1.77l-2.98,7.85h.01ZM145.77,39.29h.02l.99,2.88h-2.03l1.02-2.88h-.01.01Z" fill="#fff"/><path d="M155.35,39.52h-1.48v.76h-.02c-.37-.66-.95-.92-1.69-.92-1.59,0-2.44,1.34-2.44,2.81,0,1.56.73,2.86,2.43,2.86.68,0,1.36-.28,1.7-.88h.02v.75c0,.82-.38,1.41-1.25,1.41-.54,0-1.02-.2-1.17-.78h-1.55c.08,1.3,1.38,1.82,2.51,1.82,2.62,0,2.94-1.58,2.94-2.52v-5.32M152.54,43.86c-.96,0-1.26-.89-1.26-1.7s.38-1.61,1.26-1.61c1.01,0,1.33.83,1.33,1.74,0,.82-.44,1.57-1.33,1.57" fill="#fff"/><path d="M161.78,42.74c.11-1.74-.83-3.37-2.76-3.37-1.72,0-2.9,1.3-2.9,3s1.11,2.99,2.9,2.99c1.29,0,2.22-.57,2.66-1.92h-1.37c-.1.35-.6.74-1.23.74-.87,0-1.35-.45-1.4-1.44h4.1M157.69,41.75c.02-.44.31-1.21,1.3-1.21.76,0,1.1.41,1.24,1.21h-2.54Z" fill="#fff"/><path d="M162.47,39.52h1.48v.8h.03c.39-.63,1.08-.95,1.73-.95,1.66,0,2.07.94,2.07,2.34v3.5h-1.56v-3.2c0-.94-.27-1.4-1-1.4-.85,0-1.21.47-1.21,1.62v2.98h-1.56v-5.68" fill="#fff"/><path d="M172.6,41.52c-.1-.63-.5-.98-1.16-.98-1,0-1.33,1.01-1.33,1.84s.32,1.79,1.3,1.79c.73,0,1.14-.46,1.24-1.16h1.5c-.2,1.5-1.24,2.33-2.74,2.33-1.71,0-2.87-1.21-2.87-2.91s1.06-3.07,2.9-3.07c1.34,0,2.57.7,2.67,2.16h-1.53" fill="#fff"/><path d="M177.65,45.91c-.34.92-.88,1.29-1.95,1.29-.32,0-.63-.02-.96-.05v-1.29c.29.02.6.07.92.05.53-.05.72-.61.53-1.07l-1.99-5.33h1.67l1.29,3.89h.02l1.24-3.89h1.61l-2.38,6.4" fill="#fff"/></g></svg>